<svg width="734" height="640" viewBox="0 0 734 640" fill="none" xmlns="http://www.w3.org/2000/svg" xmlns:xlink="http://www.w3.org/1999/xlink">
<rect width="734" height="640" fill="url(#pattern0)"/>
<defs>
<pattern id="pattern0" patternContentUnits="objectBoundingBox" width="1" height="1">
<use xlink:href="#image0_1_86" transform="translate(-0.00408719) scale(0.0013624 0.0015625)"/>
</pattern>
<image id="image0_1_86" width="740" height="640" xlink:href="img/home.png"/>
</defs>
<path d="M225 531.783L446.561 539.899L516 526V548.014L447.264 568L225 556.841V531.783Z" fill="#3595F6" fill-opacity="0.75"/>
<path d="M225 532V507L446.461 513L516 506V526.5L446.461 540L225 532Z" fill="#3595F6" fill-opacity="0.75"/>
<path d="M225 507.667V481H446H515V506.5L446 513L225 507.667Z" fill="#3595F6" fill-opacity="0.75"/>
<path d="M225 481V455.739L447.066 452L515 458.77V481H446.765" fill="#3595F6" fill-opacity="0.75"/>
<path d="M225 456.028V430.269L446.5 427L515 437.898V459L446 452.362L225 456.028Z" fill="#3595F6" fill-opacity="0.75"/>
<path d="M225 430.756V409.5L444.486 395L515 417.844V439L444.486 426.783L225 430.756Z" fill="#3595F6" fill-opacity="0.75"/>
<path d="M225 409.562V383.193L445.182 365.5L515 396.166V418L445.182 395.112L225 409.562Z" fill="#3595F6" fill-opacity="0.75"/>
<path d="M225 383.435V357.257L445.976 336L515 374.325V396L443.493 365.948L225 383.435Z" fill="#3595F6" fill-opacity="0.75"/>
<path d="M225 357.405V332L446.175 308.5L515 351V375L446.175 335.67L225 357.405Z" fill="#3595F6" fill-opacity="0.75"/>
<path d="M225 331.921V307.82L445.976 279L515 330.213V351L445.182 308.523L225 331.921Z" fill="#3595F6" fill-opacity="0.75"/>
<path d="M225 308.722V284.418L447 252L515 311.051V331L445.717 279.658L225 308.722Z" fill="#3595F6" fill-opacity="0.75"/>
<path d="M225 284.694V260.412L446.536 224.5L515 290V311L446.536 252.014L225 284.694Z" fill="#3595F6" fill-opacity="0.75"/>
<path d="M225 262.077V235L446.536 197L515 267.5V291L446.237 224.89L225 262.077Z" fill="#3595F6" fill-opacity="0.75"/>
<path d="M225 235.876V211.54L444 168L515 245.903V268L446.237 196.646L225 235.876Z" fill="#3595F6" fill-opacity="0.75"/>
<path d="M225 212V187L446 138.5L515 224V247L444.3 167.7L225 212Z" fill="#3595F6" fill-opacity="0.75"/>
<path d="M225 187V162L445.54 110.5L515 202.3V225L445.54 138.7L225 187Z" fill="#3595F6" fill-opacity="0.75"/>
<path d="M225 162.912V126.13L445.938 67L515 169.225V185.762V203L445.938 111.097L225 162.912Z" fill="#3595F6" fill-opacity="0.75"/>
</svg>
