<svg width="291" height="501" viewBox="0 0 291 501" fill="none" xmlns="http://www.w3.org/2000/svg">
<path d="M0 464.783L221.561 472.899L291 459V481.014L222.264 501L0 489.841V464.783Z" fill="#3595F6" fill-opacity="0.75"/>
<path d="M0 465V440L221.461 446L291 439V459.5L221.461 473L0 465Z" fill="#3595F6" fill-opacity="0.75"/>
<path d="M0 440.667V414H221H290V439.5L221 446L0 440.667Z" fill="#3595F6" fill-opacity="0.75"/>
<path d="M0 414V388.739L222.066 385L290 391.77V414H221.765" fill="#3595F6" fill-opacity="0.75"/>
<path d="M0 389.028V363.269L221.5 360L290 370.898V392L221 385.362L0 389.028Z" fill="#3595F6" fill-opacity="0.75"/>
<path d="M0 363.756V342.5L219.486 328L290 350.844V372L219.486 359.783L0 363.756Z" fill="#3595F6" fill-opacity="0.75"/>
<path d="M0 342.562V316.193L220.182 298.5L290 329.166V351L220.182 328.112L0 342.562Z" fill="#3595F6" fill-opacity="0.75"/>
<path d="M0 316.435V290.257L220.976 269L290 307.325V329L218.493 298.948L0 316.435Z" fill="#3595F6" fill-opacity="0.75"/>
<path d="M0 290.405V265L221.175 241.5L290 284V308L221.175 268.67L0 290.405Z" fill="#3595F6" fill-opacity="0.75"/>
<path d="M0 264.921V240.82L220.976 212L290 263.213V284L220.182 241.523L0 264.921Z" fill="#3595F6" fill-opacity="0.75"/>
<path d="M0 241.722V217.418L222 185L290 244.051V264L220.717 212.658L0 241.722Z" fill="#3595F6" fill-opacity="0.75"/>
<path d="M0 217.694V193.412L221.536 157.5L290 223V244L221.536 185.014L0 217.694Z" fill="#3595F6" fill-opacity="0.75"/>
<path d="M0 195.077V168L221.536 130L290 200.5V224L221.237 157.89L0 195.077Z" fill="#3595F6" fill-opacity="0.75"/>
<path d="M0 168.876V144.54L219 101L290 178.903V201L221.237 129.646L0 168.876Z" fill="#3595F6" fill-opacity="0.75"/>
<path d="M0 145V120L221 71.5L290 157V180L219.3 100.7L0 145Z" fill="#3595F6" fill-opacity="0.75"/>
<path d="M0 120V95L220.54 43.5L290 135.3V158L220.54 71.7L0 120Z" fill="#3595F6" fill-opacity="0.75"/>
<path d="M0 95.9116V59.1304L220.938 0L290 102.225V118.762V136L220.938 44.0973L0 95.9116Z" fill="#3595F6" fill-opacity="0.75"/>
</svg>
